# 3ds Max Wavefront OBJ Exporter v0.97b - (c)2007 guruware
# File Created: 07.02.2020 15:24:07

mtllib monument.mtl

#
# object Cylinder001
#

v  7.0141 0.0000 -0.0000
v  6.8793 0.0000 -1.3684
v  6.8793 0.3507 -1.3684
v  7.0141 0.3507 -0.0000
v  6.4802 0.0000 -2.6842
v  6.4802 0.3507 -2.6842
v  5.8320 0.0000 -3.8968
v  5.8320 0.3507 -3.8968
v  4.9597 0.0000 -4.9597
v  4.9597 0.3507 -4.9597
v  3.8968 0.0000 -5.8320
v  3.8968 0.3507 -5.8320
v  2.6842 0.0000 -6.4802
v  2.6842 0.3507 -6.4802
v  1.3684 0.0000 -6.8793
v  1.3684 0.3507 -6.8793
v  0.0000 0.0000 -7.0141
v  0.0000 0.3507 -7.0141
v  -1.3684 0.0000 -6.8793
v  -1.3684 0.3507 -6.8793
v  -2.6842 0.0000 -6.4802
v  -2.6842 0.3507 -6.4802
v  -3.8968 0.0000 -5.8320
v  -3.8968 0.3507 -5.8320
v  -4.9597 0.0000 -4.9597
v  -4.9597 0.3507 -4.9597
v  -5.8320 0.0000 -3.8968
v  -5.8320 0.3507 -3.8968
v  -6.4802 0.0000 -2.6842
v  -6.4802 0.3507 -2.6842
v  -6.8793 0.0000 -1.3684
v  -6.8793 0.3507 -1.3684
v  -7.0141 0.0000 0.0000
v  -7.0141 0.3507 0.0000
v  -6.8793 0.0000 1.3684
v  -6.8793 0.3507 1.3684
v  -6.4802 0.0000 2.6842
v  -6.4802 0.3507 2.6842
v  -5.8320 0.0000 3.8968
v  -5.8320 0.3507 3.8968
v  -4.9597 0.0000 4.9597
v  -4.9597 0.3507 4.9597
v  -3.8968 0.0000 5.8320
v  -3.8968 0.3507 5.8320
v  -2.6842 0.0000 6.4802
v  -2.6842 0.3507 6.4802
v  -1.3684 0.0000 6.8793
v  -1.3684 0.3507 6.8793
v  0.0000 0.0000 7.0141
v  0.0000 0.3507 7.0141
v  1.3684 0.0000 6.8793
v  1.3684 0.3507 6.8793
v  2.6842 0.0000 6.4802
v  2.6842 0.3507 6.4802
v  3.8968 0.0000 5.8320
v  3.8968 0.3507 5.8320
v  4.9597 0.0000 4.9597
v  4.9597 0.3507 4.9597
v  5.8320 0.0000 3.8968
v  5.8320 0.3507 3.8968
v  6.4802 0.0000 2.6842
v  6.4802 0.3507 2.6842
v  6.8793 0.0000 1.3684
v  6.8793 0.3507 1.3684
v  0.0000 0.3507 -0.0000
# 65 vertices

vn 1.0000 0.0000 -0.0000
vn 0.9808 0.0000 -0.1951
vn 0.9239 0.0000 -0.3827
vn 0.8315 0.0000 -0.5556
vn 0.7071 0.0000 -0.7071
vn 0.5556 0.0000 -0.8315
vn 0.3827 0.0000 -0.9239
vn 0.1951 0.0000 -0.9808
vn 0.0000 0.0000 -1.0000
vn -0.1951 0.0000 -0.9808
vn -0.3827 0.0000 -0.9239
vn -0.5556 0.0000 -0.8315
vn -0.7071 0.0000 -0.7071
vn -0.8315 0.0000 -0.5556
vn -0.9239 0.0000 -0.3827
vn -0.9808 0.0000 -0.1951
vn -1.0000 0.0000 0.0000
vn -0.9808 0.0000 0.1951
vn -0.9239 0.0000 0.3827
vn -0.8315 0.0000 0.5556
vn -0.7071 0.0000 0.7071
vn -0.5556 0.0000 0.8315
vn -0.3827 0.0000 0.9239
vn -0.1951 0.0000 0.9808
vn 0.0000 0.0000 1.0000
vn 0.1951 0.0000 0.9808
vn 0.3827 0.0000 0.9239
vn 0.5556 0.0000 0.8315
vn 0.7071 0.0000 0.7071
vn 0.8315 0.0000 0.5556
vn 0.9239 0.0000 0.3827
vn 0.9808 0.0000 0.1951
vn 0.0000 1.0000 -0.0000
# 33 vertex normals

vt 0.7500 0.0000 1.0000
vt 0.7813 0.0000 1.0000
vt 0.7813 1.0000 1.0000
vt 0.7500 1.0000 1.0000
vt 0.8125 0.0000 1.0000
vt 0.8125 1.0000 1.0000
vt 0.8437 0.0000 1.0000
vt 0.8437 1.0000 1.0000
vt 0.8750 0.0000 1.0000
vt 0.8750 1.0000 1.0000
vt 0.9062 0.0000 1.0000
vt 0.9062 1.0000 1.0000
vt 0.9375 0.0000 1.0000
vt 0.9375 1.0000 1.0000
vt 0.9688 0.0000 1.0000
vt 0.9688 1.0000 1.0000
vt 1.0000 0.0000 1.0000
vt 1.0000 1.0000 1.0000
vt 1.0313 0.0000 1.0000
vt 1.0313 1.0000 1.0000
vt 0.0313 0.0000 1.0000
vt 0.0625 0.0000 1.0000
vt 0.0625 1.0000 1.0000
vt 0.0313 1.0000 1.0000
vt 0.0938 0.0000 1.0000
vt 0.0938 1.0000 1.0000
vt 0.1250 0.0000 1.0000
vt 0.1250 1.0000 1.0000
vt 0.1563 0.0000 1.0000
vt 0.1563 1.0000 1.0000
vt 0.1875 0.0000 1.0000
vt 0.1875 1.0000 1.0000
vt 0.2188 0.0000 1.0000
vt 0.2188 1.0000 1.0000
vt 0.2500 0.0000 1.0000
vt 0.2500 1.0000 1.0000
vt 0.2813 0.0000 1.0000
vt 0.2813 1.0000 1.0000
vt 0.3125 0.0000 1.0000
vt 0.3125 1.0000 1.0000
vt 0.3438 0.0000 1.0000
vt 0.3438 1.0000 1.0000
vt 0.3750 0.0000 1.0000
vt 0.3750 1.0000 1.0000
vt 0.4063 0.0000 1.0000
vt 0.4063 1.0000 1.0000
vt 0.4375 0.0000 1.0000
vt 0.4375 1.0000 1.0000
vt 0.4688 0.0000 1.0000
vt 0.4688 1.0000 1.0000
vt 0.5000 0.0000 1.0000
vt 0.5000 1.0000 1.0000
vt 0.5313 0.0000 1.0000
vt 0.5313 1.0000 1.0000
vt 0.5625 0.0000 1.0000
vt 0.5625 1.0000 1.0000
vt 0.5938 0.0000 1.0000
vt 0.5938 1.0000 1.0000
vt 0.6250 0.0000 1.0000
vt 0.6250 1.0000 1.0000
vt 0.6563 0.0000 1.0000
vt 0.6563 1.0000 1.0000
vt 0.6875 0.0000 1.0000
vt 0.6875 1.0000 1.0000
vt 0.7188 0.0000 1.0000
vt 0.7188 1.0000 1.0000
vt 0.5000 1.0000 0.2500
vt 0.4025 0.9904 0.2500
vt 0.5000 0.5000 0.2500
vt 0.3087 0.9619 0.2500
vt 0.2222 0.9157 0.2500
vt 0.1464 0.8536 0.2500
vt 0.0843 0.7778 0.2500
vt 0.0381 0.6913 0.2500
vt 0.0096 0.5975 0.2500
vt 0.0000 0.5000 0.2500
vt 0.0096 0.4025 0.2500
vt 0.0381 0.3087 0.2500
vt 0.0843 0.2222 0.2500
vt 0.1464 0.1464 0.2500
vt 0.2222 0.0843 0.2500
vt 0.3087 0.0381 0.2500
vt 0.4025 0.0096 0.2500
vt 0.5000 0.0000 0.2500
vt 0.5975 0.0096 0.2500
vt 0.6913 0.0381 0.2500
vt 0.7778 0.0843 0.2500
vt 0.8536 0.1464 0.2500
vt 0.9157 0.2222 0.2500
vt 0.9619 0.3087 0.2500
vt 0.9904 0.4025 0.2500
vt 1.0000 0.5000 0.2500
vt 0.9904 0.5975 0.2500
vt 0.9619 0.6913 0.2500
vt 0.9157 0.7778 0.2500
vt 0.8536 0.8536 0.2500
vt 0.7778 0.9157 0.2500
vt 0.6913 0.9619 0.2500
vt 0.5975 0.9904 0.2500
# 99 texture coords

g Cylinder001
usemtl wire_087225143
s 8
f 1/1/1 2/2/2 3/3/2 4/4/1 
f 2/2/2 5/5/3 6/6/3 3/3/2 
f 5/5/3 7/7/4 8/8/4 6/6/3 
f 7/7/4 9/9/5 10/10/5 8/8/4 
f 9/9/5 11/11/6 12/12/6 10/10/5 
f 11/11/6 13/13/7 14/14/7 12/12/6 
f 13/13/7 15/15/8 16/16/8 14/14/7 
f 15/15/8 17/17/9 18/18/9 16/16/8 
f 17/17/9 19/19/10 20/20/10 18/18/9 
f 19/21/10 21/22/11 22/23/11 20/24/10 
f 21/22/11 23/25/12 24/26/12 22/23/11 
f 23/25/12 25/27/13 26/28/13 24/26/12 
f 25/27/13 27/29/14 28/30/14 26/28/13 
f 27/29/14 29/31/15 30/32/15 28/30/14 
f 29/31/15 31/33/16 32/34/16 30/32/15 
f 31/33/16 33/35/17 34/36/17 32/34/16 
f 33/35/17 35/37/18 36/38/18 34/36/17 
f 35/37/18 37/39/19 38/40/19 36/38/18 
f 37/39/19 39/41/20 40/42/20 38/40/19 
f 39/41/20 41/43/21 42/44/21 40/42/20 
f 41/43/21 43/45/22 44/46/22 42/44/21 
f 43/45/22 45/47/23 46/48/23 44/46/22 
f 45/47/23 47/49/24 48/50/24 46/48/23 
f 47/49/24 49/51/25 50/52/25 48/50/24 
f 49/51/25 51/53/26 52/54/26 50/52/25 
f 51/53/26 53/55/27 54/56/27 52/54/26 
f 53/55/27 55/57/28 56/58/28 54/56/27 
f 55/57/28 57/59/29 58/60/29 56/58/28 
f 57/59/29 59/61/30 60/62/30 58/60/29 
f 59/61/30 61/63/31 62/64/31 60/62/30 
f 61/63/31 63/65/32 64/66/32 62/64/31 
f 63/65/32 1/1/1 4/4/1 64/66/32 
s 1
f 4/67/33 3/68/33 65/69/33 
f 3/68/33 6/70/33 65/69/33 
f 6/70/33 8/71/33 65/69/33 
f 8/71/33 10/72/33 65/69/33 
f 10/72/33 12/73/33 65/69/33 
f 12/73/33 14/74/33 65/69/33 
f 14/74/33 16/75/33 65/69/33 
f 16/75/33 18/76/33 65/69/33 
f 18/76/33 20/77/33 65/69/33 
f 20/77/33 22/78/33 65/69/33 
f 22/78/33 24/79/33 65/69/33 
f 24/79/33 26/80/33 65/69/33 
f 26/80/33 28/81/33 65/69/33 
f 28/81/33 30/82/33 65/69/33 
f 30/82/33 32/83/33 65/69/33 
f 32/83/33 34/84/33 65/69/33 
f 34/84/33 36/85/33 65/69/33 
f 36/85/33 38/86/33 65/69/33 
f 38/86/33 40/87/33 65/69/33 
f 40/87/33 42/88/33 65/69/33 
f 42/88/33 44/89/33 65/69/33 
f 44/89/33 46/90/33 65/69/33 
f 46/90/33 48/91/33 65/69/33 
f 48/91/33 50/92/33 65/69/33 
f 50/92/33 52/93/33 65/69/33 
f 52/93/33 54/94/33 65/69/33 
f 54/94/33 56/95/33 65/69/33 
f 56/95/33 58/96/33 65/69/33 
f 58/96/33 60/97/33 65/69/33 
f 60/97/33 62/98/33 65/69/33 
f 62/98/33 64/99/33 65/69/33 
f 64/99/33 4/67/33 65/69/33 
# 32 polygons - 32 triangles

#
# object Box001
#

v  -1.5000 0.3443 2.5000
v  1.5000 0.3443 2.5000
v  0.9000 0.9615 1.9000
v  -0.9000 0.9615 1.9000
v  2.0000 0.3443 2.0000
v  2.0000 0.3443 -2.0000
v  1.4000 0.9615 -1.4000
v  1.4000 0.9615 1.4000
v  1.5000 0.3443 -2.5000
v  -1.5000 0.3443 -2.5000
v  -0.9000 0.9615 -1.9000
v  0.9000 0.9615 -1.9000
v  -2.0000 0.3443 -2.0000
v  -2.0000 0.3443 2.0000
v  -1.4000 0.9615 1.4000
v  -1.4000 0.9615 -1.4000
v  1.1760 0.9615 -1.4000
v  -1.1760 0.9615 1.4000
v  1.1760 0.9615 1.4000
v  -1.1760 0.9615 -1.4000
v  -0.8760 1.9615 -1.1000
v  0.8760 1.9615 -1.1000
v  -0.8760 1.9615 1.1000
v  0.8760 1.9615 1.1000
v  -0.8310 1.9615 -1.0550
v  0.8310 1.9615 -1.0550
v  -0.8310 1.9615 1.0550
v  0.8310 1.9615 1.0550
v  -0.8310 2.1615 -1.0550
v  0.8310 2.1615 -1.0550
v  -0.8310 2.1615 1.0550
v  0.8310 2.1615 1.0550
v  -0.7400 2.2515 -0.9640
v  0.7400 2.2515 -0.9640
v  -0.7400 2.2515 0.9640
v  0.7400 2.2515 0.9640
v  -0.1533 11.9294 -0.1899
v  -0.1533 11.9294 -0.0960
v  -0.1360 11.9294 -0.1899
v  0.7400 3.6704 -0.9640
v  -0.7400 3.6704 -0.9640
v  -0.7633 3.6941 -0.9873
v  0.7633 3.6941 -0.9873
v  -0.7400 3.6704 0.9640
v  -0.7633 3.6941 0.9873
v  0.7400 3.6704 0.9640
v  0.7633 3.6941 0.9873
v  0.7718 3.7091 -0.9958
v  -0.7718 3.7091 -0.9958
v  -0.7780 3.7294 -1.0020
v  0.7780 3.7294 -1.0020
v  -0.7718 3.7091 0.9958
v  -0.7780 3.7294 1.0020
v  0.7718 3.7091 0.9958
v  0.7780 3.7294 1.0020
v  -0.7780 3.9294 -1.0020
v  0.7780 3.9294 -1.0020
v  -0.7780 3.9294 1.0020
v  0.7780 3.9294 1.0020
v  -0.6820 3.9294 -0.9060
v  0.6820 3.9294 -0.9060
v  -0.6820 3.9294 0.9060
v  0.6820 3.9294 0.9060
v  -0.6820 4.2294 -0.9060
v  0.6820 4.2294 -0.9060
v  -0.6820 4.2294 0.9060
v  0.6820 4.2294 0.9060
v  -0.5860 4.2294 -0.8100
v  0.5860 4.2294 -0.8100
v  -0.5860 4.2294 0.8100
v  0.5860 4.2294 0.8100
v  -0.5860 4.5294 -0.8100
v  0.5860 4.5294 -0.8100
v  -0.5860 4.5294 0.8100
v  0.5860 4.5294 0.8100
v  -0.4900 4.5294 -0.7140
v  -0.1886 4.5294 -0.7140
v  0.1886 4.5294 -0.7140
v  0.4900 4.5294 -0.7140
v  -0.4900 4.5294 0.7140
v  -0.4900 4.5294 0.2207
v  -0.4900 4.5294 -0.2207
v  0.4900 4.5294 0.7140
v  0.1886 4.5294 0.7140
v  -0.1886 4.5294 0.7140
v  0.4900 4.5294 -0.2207
v  0.4900 4.5294 0.2207
v  -0.1886 4.9294 -0.7140
v  0.1886 4.9294 -0.7140
v  -0.4900 4.9294 0.2207
v  -0.4900 4.9294 -0.2207
v  0.1886 4.9294 0.7140
v  -0.1886 4.9294 0.7140
v  0.4900 4.9294 -0.2207
v  0.4900 4.9294 0.2207
v  -0.1886 4.7294 -0.7830
v  0.1886 4.7294 -0.7830
v  -0.5590 4.7294 0.2749
v  -0.5590 4.7294 -0.2749
v  0.1886 4.7294 0.7830
v  -0.1886 4.7294 0.7830
v  0.5590 4.7294 -0.2749
v  0.5590 4.7294 0.2749
v  -0.5388 4.7294 0.7628
v  -0.5388 4.7294 -0.7628
v  -0.4900 4.9294 -0.7140
v  -0.4900 4.9294 0.7140
v  0.5388 4.7294 0.7628
v  0.4900 4.9294 0.7140
v  0.5388 4.7294 -0.7628
v  0.4900 4.9294 -0.7140
v  -0.1360 11.9294 0.1899
v  0.1360 11.9294 0.1899
v  0.1533 11.9294 0.0960
v  -0.1533 11.9294 0.0960
v  0.1533 11.9294 -0.0960
v  -0.1533 11.9294 0.1899
v  0.1533 11.9294 0.1899
v  0.1533 11.9294 -0.1899
v  0.1360 11.9294 -0.1899
v  -0.3533 10.9294 0.1591
v  -0.3533 10.9294 -0.1591
v  -0.3533 10.9294 0.5148
v  -0.1360 10.9294 0.5148
v  0.1360 10.9294 0.5148
v  0.3533 10.9294 0.5148
v  0.3533 10.9294 0.1591
v  0.3533 10.9294 -0.1591
v  0.3533 10.9294 -0.5148
v  0.1360 10.9294 -0.5148
v  -0.1360 10.9294 -0.5148
v  -0.3533 10.9294 -0.5148
# 132 vertices

vn 0.0000 0.6971 0.7170
vn 0.7170 0.6971 -0.0000
vn 0.0000 0.6971 -0.7170
vn -0.7170 0.6971 -0.0000
vn -0.4159 0.8087 0.4159
vn 0.4159 0.8087 0.4159
vn 0.4159 0.8087 -0.4159
vn -0.4159 0.8087 -0.4159
vn 0.0000 1.0000 -0.0000
vn 0.0000 0.2873 -0.9578
vn -0.9578 0.2873 -0.0000
vn 0.0000 0.2873 0.9578
vn 0.9578 0.2873 -0.0000
vn 0.0000 0.0000 -1.0000
vn -1.0000 0.0000 -0.0000
vn 0.0000 0.0000 1.0000
vn 1.0000 0.0000 -0.0000
vn 0.0000 0.7110 -0.7032
vn -0.7032 0.7110 -0.0000
vn 0.0000 0.7110 0.7032
vn 0.7032 0.7110 -0.0000
vn 0.0000 -0.7006 -0.7136
vn 0.0000 -0.5644 -0.8255
vn -0.7136 -0.7006 -0.0000
vn -0.8255 -0.5644 -0.0000
vn 0.0000 -0.7006 0.7136
vn 0.0000 -0.5644 0.8255
vn 0.7136 -0.7006 -0.0000
vn 0.8255 -0.5644 -0.0000
vn 0.0000 -0.3694 -0.9293
vn 0.0000 -0.1327 -0.9912
vn -0.9293 -0.3694 -0.0000
vn -0.9912 -0.1327 -0.0000
vn 0.0000 -0.3694 0.9293
vn 0.0000 -0.1327 0.9912
vn 0.9293 -0.3694 -0.0000
vn 0.9912 -0.1327 -0.0000
vn -0.6317 0.4537 0.6286
vn -0.6317 0.4537 -0.6286
vn 0.6317 0.4537 0.6286
vn 0.6317 0.4537 -0.6286
vn -0.6176 0.0000 -0.7865
vn -0.6176 0.0000 0.7865
vn 0.6176 0.0000 0.7865
vn 0.6176 0.0000 -0.7865
vn -0.9577 -0.2871 0.0197
vn -0.9577 -0.2871 -0.0197
vn -0.9577 0.2871 -0.0197
vn -0.9577 0.2871 0.0197
vn 0.0297 -0.2857 0.9579
vn -0.0297 -0.2857 0.9579
vn -0.0297 0.2857 0.9579
vn 0.0297 0.2857 0.9579
vn 0.9577 -0.2871 -0.0197
vn 0.9577 -0.2871 0.0197
vn 0.9577 0.2871 0.0197
vn 0.9577 0.2871 -0.0197
vn -0.0297 -0.2857 -0.9579
vn 0.0297 -0.2857 -0.9579
vn 0.0297 0.2857 -0.9579
vn -0.0297 0.2857 -0.9579
vn -0.9997 0.0228 -0.0000
vn 0.0000 0.0332 0.9994
vn 0.9997 0.0228 -0.0000
vn 0.0000 0.0332 -0.9994
vn -0.9806 0.1961 -0.0000
vn 0.0000 0.3090 0.9511
vn 0.9806 0.1961 -0.0000
vn 0.9806 0.1961 0.0000
vn 0.0000 0.3090 -0.9511
vn -0.9806 0.1961 0.0000
# 71 vertex normals

vt 0.1250 0.0000 0.0000
vt 0.8750 0.0000 0.0000
vt 0.8214 0.0000 0.0000
vt 0.1786 0.0000 0.0000
vt 1.0000 0.1000 0.0000
vt 1.0000 0.9000 0.0000
vt 1.0000 0.8684 0.0000
vt 1.0000 0.1316 0.0000
vt 0.8750 1.0000 0.0000
vt 0.1250 1.0000 0.0000
vt 0.1786 1.0000 0.0000
vt 0.8214 1.0000 0.0000
vt 0.0000 0.9000 0.0000
vt 0.0000 0.1000 0.0000
vt 0.0000 0.1316 0.0000
vt 0.0000 0.8684 0.0000
vt 0.9200 0.8684 0.0000
vt 0.0800 0.1316 0.0000
vt 0.9200 0.1316 0.0000
vt 0.0800 0.8684 0.0000
vt 0.0800 0.6418 0.0000
vt 0.3383 0.8684 0.0000
vt 0.6617 0.8684 0.0000
vt 0.0800 0.3582 0.0000
vt 0.6617 0.1316 0.0000
vt 0.3383 0.1316 0.0000
vt 0.9200 0.6418 0.0000
vt 0.9200 0.3582 0.0000
# 28 texture coords

g Box001
usemtl wire_184155229
s 1
f 66/100/34 67/101/34 68/102/34 69/103/34 
f 70/104/35 71/105/35 72/106/35 73/107/35 
f 74/108/36 75/109/36 76/110/36 77/111/36 
f 78/112/37 79/113/37 80/114/37 81/115/37 
s 8
f 79/113/38 66/100/38 69/103/38 80/114/38 
f 67/101/39 70/104/39 73/107/39 68/102/39 
f 71/105/40 74/108/40 77/111/40 72/106/40 
f 75/109/41 78/112/41 81/115/41 76/110/41 
s 2
f 72/106/42 77/111/42 82/116/42 
f 80/114/42 69/103/42 83/117/42 
f 73/107/42 72/106/42 82/116/42 84/118/42 
f 81/115/42 80/114/42 83/117/42 85/119/42 
f 76/110/42 85/119/42 82/116/42 77/111/42 
f 76/110/42 81/115/42 85/119/42 
f 68/102/42 84/118/42 83/117/42 69/103/42 
f 68/102/42 73/107/42 84/118/42 
s 1
f 82/116/43 85/119/43 86/119/43 87/116/43 
s 4
f 85/119/44 83/117/44 88/117/44 86/119/44 
s 1
f 83/117/45 84/118/45 89/118/45 88/117/45 
s 4
f 84/118/46 82/116/46 87/116/46 89/118/46 
s 2
f 87/116/42 86/119/42 90/119/42 91/116/42 
f 86/119/42 88/117/42 92/117/42 90/119/42 
f 88/117/42 89/118/42 93/118/42 92/117/42 
f 89/118/42 87/116/42 91/116/42 93/118/42 
s 1
f 91/116/47 90/119/47 94/119/47 95/116/47 
s 4
f 90/119/48 92/117/48 96/117/48 94/119/48 
s 1
f 92/117/49 93/118/49 97/118/49 96/117/49 
s 4
f 93/118/50 91/116/50 95/116/50 97/118/50 
s 2
f 95/116/51 94/119/51 98/119/51 99/116/51 
s 8
f 94/119/52 96/117/52 100/117/52 98/119/52 
s 2
f 96/117/53 97/118/53 101/118/53 100/117/53 
s 8
f 97/118/54 95/116/54 99/116/54 101/118/54 
s 1
f 102/119/42 103/120/42 104/121/42 
s 2
f 105/116/55 106/119/55 107/119/56 108/116/56 
s 8
f 106/119/57 109/117/57 110/117/58 107/119/58 
s 2
f 109/117/59 111/118/59 112/118/60 110/117/60 
s 8
f 111/118/61 105/116/61 108/116/62 112/118/62 
s 2
f 113/116/63 114/119/63 115/119/64 116/116/64 
s 8
f 114/119/65 117/117/65 118/117/66 115/119/66 
s 2
f 117/117/67 119/118/67 120/118/68 118/117/68 
s 8
f 119/118/69 113/116/69 116/116/70 120/118/70 
s 2
f 116/116/64 115/119/64 121/119/47 122/116/47 
s 8
f 115/119/66 118/117/66 123/117/48 121/119/48 
s 2
f 118/117/68 120/118/68 124/118/49 123/117/49 
s 8
f 120/118/70 116/116/70 122/116/50 124/118/50 
s 2
f 113/116/63 108/116/56 107/119/56 114/119/63 
s 8
f 114/119/65 107/119/58 110/117/58 117/117/65 
s 2
f 117/117/67 110/117/60 112/118/60 119/118/67 
s 8
f 119/118/69 112/118/62 108/116/62 113/116/69 
s off
f 122/116/42 121/119/42 125/119/42 126/116/42 
f 121/119/42 123/117/42 127/117/42 125/119/42 
f 123/117/42 124/118/42 128/118/42 127/117/42 
f 124/118/42 122/116/42 126/116/42 128/118/42 
f 126/116/47 125/119/47 129/119/47 130/116/47 
f 125/119/48 127/117/48 131/117/48 129/119/48 
f 127/117/49 128/118/49 132/118/49 131/117/49 
f 128/118/50 126/116/50 130/116/50 132/118/50 
f 130/116/42 129/119/42 133/119/42 134/116/42 
f 129/119/42 131/117/42 135/117/42 133/119/42 
f 131/117/42 132/118/42 136/118/42 135/117/42 
f 132/118/42 130/116/42 134/116/42 136/118/42 
f 134/116/47 133/119/47 137/119/47 138/116/47 
f 133/119/48 135/117/48 139/117/48 137/119/48 
f 135/117/49 136/118/49 140/118/49 139/117/49 
f 136/118/50 134/116/50 138/116/50 140/118/50 
f 138/116/42 137/119/42 141/119/42 142/121/42 
f 138/116/42 142/121/42 143/122/42 144/116/42 
f 137/119/42 139/117/42 145/117/42 146/123/42 
f 137/119/42 146/123/42 147/120/42 141/119/42 
f 139/117/42 140/118/42 148/118/42 149/124/42 
f 139/117/42 149/124/42 150/125/42 145/117/42 
f 140/118/42 138/116/42 144/116/42 151/126/42 
f 140/118/42 151/126/42 152/127/42 148/118/42 
f 142/121/47 142/121/47 153/121/47 154/122/47 
f 143/122/47 142/121/47 154/122/47 143/122/47 
f 146/123/48 146/123/48 155/123/48 156/120/48 
f 147/120/48 146/123/48 156/120/48 147/120/48 
f 149/124/49 149/124/49 157/124/49 158/125/49 
f 150/125/49 149/124/49 158/125/49 150/125/49 
f 151/126/50 151/126/50 159/126/50 160/127/50 
f 152/127/50 151/126/50 160/127/50 152/127/50 
f 145/117/71 145/117/71 146/123/71 146/123/71 
f 141/119/72 147/120/72 147/120/72 141/119/72 
f 148/118/73 148/118/73 149/124/73 149/124/73 
f 145/117/71 150/125/71 150/125/71 145/117/71 
f 144/116/74 144/116/74 151/126/74 151/126/74 
f 148/118/73 152/127/73 152/127/73 148/118/73 
f 141/119/72 141/119/72 142/121/72 142/121/72 
f 144/116/74 143/122/74 143/122/74 144/116/74 
f 142/121/50 161/121/50 153/121/50 
f 154/122/48 162/122/48 143/122/48 
f 146/123/75 163/123/75 155/123/75 
f 156/120/76 164/120/76 147/120/76 
f 149/124/48 165/124/48 157/124/48 
f 158/125/50 166/125/50 150/125/50 
f 151/126/77 167/126/77 159/126/77 
f 160/127/78 168/127/78 152/127/78 
f 163/123/79 146/123/79 145/117/79 169/117/79 
f 170/119/80 141/119/80 147/120/80 164/120/80 
f 164/120/81 156/120/81 171/119/81 170/119/81 
f 169/117/82 172/117/82 155/123/82 163/123/82 
f 165/124/83 149/124/83 148/118/83 173/118/83 
f 169/117/84 145/117/84 150/125/84 166/125/84 
f 166/125/85 158/125/85 172/117/85 169/117/85 
f 173/118/86 174/118/86 157/124/86 165/124/86 
f 167/126/87 151/126/87 144/116/87 175/116/87 
f 173/118/88 148/118/88 152/127/88 168/127/88 
f 168/127/89 160/127/89 174/118/89 173/118/89 
f 175/116/90 176/116/90 159/126/90 167/126/90 
f 161/121/91 142/121/91 141/119/91 170/119/91 
f 175/116/92 144/116/92 143/122/92 162/122/92 
f 162/122/93 154/122/93 176/116/93 175/116/93 
f 170/119/94 171/119/94 153/121/94 161/121/94 
s 1
f 177/125/42 178/124/42 179/127/42 180/123/42 
f 103/120/42 180/123/42 179/127/42 181/126/42 
f 180/123/42 182/117/42 177/125/42 
f 178/124/42 183/118/42 179/127/42 
f 181/126/42 184/116/42 185/122/42 
f 103/120/42 181/126/42 185/122/42 104/121/42 
s off
f 156/120/95 155/123/95 186/123/95 187/120/95 
f 155/123/95 172/117/95 188/117/95 186/123/95 
f 172/117/96 158/125/96 189/125/96 188/117/96 
f 158/125/96 157/124/96 190/124/96 189/125/96 
f 157/124/96 174/118/96 191/118/96 190/124/96 
f 174/118/97 160/127/97 192/127/97 191/118/97 
f 160/127/97 159/126/97 193/126/97 192/127/97 
f 159/126/97 176/116/97 194/116/97 193/126/97 
f 176/116/98 154/122/98 195/122/98 194/116/98 
f 154/122/98 153/121/98 196/121/98 195/122/98 
f 153/121/98 171/119/98 197/119/98 196/121/98 
f 171/119/95 156/120/95 187/120/95 197/119/95 
f 187/120/99 186/123/99 180/123/99 103/120/99 
f 186/123/99 188/117/99 182/117/99 180/123/99 
f 188/117/100 189/125/100 177/125/100 182/117/100 
f 189/125/100 190/124/100 178/124/100 177/125/100 
f 190/124/100 191/118/100 183/118/100 178/124/100 
f 191/118/101 192/127/101 179/127/101 183/118/101 
f 192/127/101 193/126/101 181/126/101 179/127/101 
f 193/126/102 194/116/102 184/116/102 181/126/102 
f 194/116/103 195/122/103 185/122/103 184/116/103 
f 195/122/103 196/121/103 104/121/103 185/122/103 
f 196/121/103 197/119/103 102/119/103 104/121/103 
f 197/119/104 187/120/104 103/120/104 102/119/104 
s 1
f 111/118/50 101/118/50 99/116/50 105/116/50 
s 4
f 109/117/49 100/117/49 101/118/49 111/118/49 
s 1
f 106/119/48 98/119/48 100/117/48 109/117/48 
s 4
f 105/116/47 99/116/47 98/119/47 106/119/47 
# 131 polygons - 16 triangles

